<svg width="169" height="45" viewBox="0 0 169 45" fill="none" xmlns="http://www.w3.org/2000/svg">
<rect width="169" height="45" rx="5" fill="#94A3B8"/>
<path fill-rule="evenodd" clip-rule="evenodd" d="M64.917 29.6481H59.5568L58.2696 33.5332H55.9992L61.0763 19.1595H63.4351L68.5122 33.5332H66.2031L64.917 29.6481ZM60.112 27.8554H64.3608L62.2663 21.5502H62.2077L60.112 27.8554ZM79.477 28.294C79.477 31.5505 77.7717 33.6428 75.1984 33.6428C73.8682 33.714 72.6153 33.0018 71.9725 31.8094H71.9238V37H69.8193V23.0536H71.8564V24.7966H71.8951C72.5664 23.6116 73.8207 22.8998 75.1597 22.944C77.7617 22.944 79.477 25.0464 79.477 28.294ZM77.3139 28.294C77.3139 26.1723 76.2412 24.7774 74.6045 24.7774C72.9966 24.7774 71.915 26.2017 71.915 28.294C71.915 30.4055 72.9966 31.8196 74.6045 31.8196C76.2412 31.8196 77.3139 30.4349 77.3139 28.294ZM90.7614 28.294C90.7614 31.5505 89.0561 33.6428 86.4827 33.6428C85.1526 33.714 83.8996 33.0018 83.2569 31.8094H83.2082V37H81.1037V23.0536H83.1407V24.7966H83.1794C83.8507 23.6116 85.105 22.8998 86.444 22.944C89.0462 22.944 90.7614 25.0464 90.7614 28.294ZM88.5983 28.294C88.5983 26.1723 87.5256 24.7774 85.8889 24.7774C84.2809 24.7774 83.1994 26.2017 83.1994 28.294C83.1994 30.4055 84.2809 31.8196 85.8889 31.8196C87.5256 31.8196 88.5983 30.4349 88.5983 28.294ZM98.2194 29.5283C98.3754 30.9537 99.7301 31.8896 101.581 31.8896C103.355 31.8896 104.631 30.9537 104.631 29.6684C104.631 28.5528 103.862 27.8847 102.039 27.4269L100.217 26.9782C97.6344 26.3406 96.4357 25.1063 96.4357 23.1033C96.4357 20.6233 98.5501 18.9198 101.553 18.9198C104.524 18.9198 106.561 20.6233 106.63 23.1033H104.505C104.378 21.6689 103.218 20.803 101.523 20.803C99.8273 20.803 98.6673 21.679 98.6673 22.9541C98.6673 23.9703 99.4082 24.5682 101.221 25.026L102.77 25.4148C105.655 26.1123 106.854 27.2969 106.854 29.3994C106.854 32.0885 104.758 33.7727 101.425 33.7727C98.3068 33.7727 96.2012 32.1281 96.0651 29.5282L98.2194 29.5283ZM111.396 20.5736V23.0536H113.346V24.7571H111.396V30.5343C111.396 31.4318 111.786 31.8501 112.643 31.8501C112.875 31.846 113.106 31.8293 113.336 31.8003V33.4936C112.95 33.5672 112.559 33.6005 112.167 33.5931C110.091 33.5931 109.282 32.7962 109.282 30.7638V24.7571H107.791V23.0536H109.281V20.5736H111.396ZM114.475 28.294C114.475 24.9967 116.375 22.9248 119.337 22.9248C122.31 22.9248 124.201 24.9967 124.201 28.294C124.201 31.6003 122.32 33.6632 119.337 33.6632C116.356 33.6632 114.475 31.6003 114.475 28.294ZM122.057 28.294C122.057 26.0321 121.043 24.6972 119.337 24.6972C117.632 24.6972 116.619 26.0423 116.619 28.294C116.619 30.5649 117.632 31.8897 119.337 31.8897C121.043 31.8897 122.057 30.5649 122.057 28.294ZM125.936 23.0536H127.943V24.8373H127.992C128.272 23.6891 129.301 22.8988 130.458 22.9439C130.701 22.9431 130.942 22.97 131.179 23.0242V25.0362C130.873 24.9406 130.553 24.8967 130.233 24.9063C129.615 24.8806 129.016 25.1326 128.594 25.5962C128.173 26.0597 127.97 26.6885 128.041 27.3173V33.5332H125.936L125.936 23.0536ZM140.882 30.4552C140.599 32.3576 138.786 33.6632 136.467 33.6632C133.485 33.6632 131.634 31.6206 131.634 28.3437C131.634 25.0566 133.495 22.9247 136.379 22.9247C139.215 22.9247 140.999 24.9164 140.999 28.0939V28.8309H133.758V28.9609C133.69 29.7411 133.954 30.5133 134.482 31.0813C135.009 31.6492 135.75 31.958 136.516 31.9292C137.537 32.027 138.5 31.4276 138.884 30.4552L140.882 30.4552ZM133.768 27.3275L138.894 27.3275C138.932 26.6264 138.682 25.9409 138.205 25.436C137.727 24.9311 137.066 24.6527 136.379 24.6678C135.687 24.6635 135.021 24.9421 134.531 25.4416C134.041 25.941 133.766 26.62 133.768 27.3275ZM59.8482 8.3403C60.7416 8.27477 61.6167 8.62221 62.2326 9.28698C62.8485 9.95176 63.1403 10.8638 63.0276 11.7721C63.0276 13.9785 61.8609 15.2469 59.8482 15.2469H57.4076V8.3403H59.8482ZM58.457 14.2701H59.731C60.3695 14.3091 60.9912 14.052 61.4234 13.5701C61.8557 13.0883 62.0526 12.433 61.9593 11.7862C62.0458 11.142 61.8461 10.4921 61.4149 10.0142C60.9837 9.53625 60.3661 9.28028 59.731 9.31631H58.457V14.2701ZM64.2131 12.6385C64.1257 11.7042 64.5639 10.8001 65.3441 10.3053C66.1243 9.81041 67.1114 9.81041 67.8916 10.3053C68.6718 10.8001 69.11 11.7042 69.0226 12.6385C69.1117 13.5737 68.6738 14.4796 67.893 14.9755C67.1121 15.4714 66.1236 15.4714 65.3427 14.9755C64.5619 14.4796 64.124 13.5737 64.2131 12.6385ZM67.9875 12.6385C67.9875 11.5087 67.4909 10.848 66.6195 10.848C65.7448 10.848 65.2527 11.5087 65.2527 12.6385C65.2527 13.7773 65.7448 14.4329 66.6195 14.4329C67.4909 14.4329 67.9875 13.7728 67.9875 12.6385ZM75.4157 15.2468H74.3717L73.3178 11.408H73.2382L72.1887 15.2468H71.1547L69.7492 10.0347H70.7699L71.6833 14.0118H71.7585L72.8069 10.0347H73.7723L74.8207 14.0118H74.9003L75.8094 10.0347H76.8157L75.4157 15.2468ZM77.9979 10.0347H78.9666V10.8626H79.0418C79.3034 10.253 79.9144 9.88012 80.5635 9.93405C81.0661 9.89543 81.5586 10.0925 81.902 10.4696C82.2453 10.8467 82.4023 11.363 82.3285 11.8726V15.2467H81.3222V12.1309C81.3222 11.2933 80.9661 10.8768 80.2218 10.8768C79.8809 10.8606 79.5501 10.9973 79.3161 11.2512C79.082 11.5051 78.9681 11.8507 79.0042 12.1976V15.2468H77.9979L77.9979 10.0347ZM83.932 8H84.9384V15.2467H83.932V8ZM86.3373 12.6385C86.2499 11.7042 86.6883 10.8 87.4685 10.3052C88.2487 9.81031 89.2359 9.81031 90.0162 10.3052C90.7964 10.8 91.2347 11.7042 91.1473 12.6385C91.2363 13.5737 90.7984 14.4796 90.0175 14.9755C89.2366 15.4714 88.2481 15.4714 87.4672 14.9755C86.6863 14.4796 86.2483 13.5737 86.3373 12.6385ZM90.1117 12.6385C90.1117 11.5087 89.6151 10.848 88.7437 10.848C87.869 10.848 87.3769 11.5087 87.3769 12.6385C87.3769 13.7773 87.869 14.4329 88.7437 14.4329C89.6151 14.4329 90.1117 13.7728 90.1117 12.6385ZM92.2068 13.7728C92.2068 12.8346 92.8902 12.2937 94.1033 12.2168L95.4846 12.1354V11.6856C95.4846 11.1351 95.1285 10.8242 94.4406 10.8242C93.8789 10.8242 93.4896 11.035 93.3779 11.4035H92.4036C92.5065 10.5083 93.3303 9.93407 94.4871 9.93407C95.7655 9.93407 96.4865 10.5846 96.4865 11.6856V15.2468H95.5178V14.5143H95.4381C95.1091 15.0492 94.524 15.3618 93.9065 15.3326C93.4736 15.3787 93.0419 15.2354 92.718 14.9382C92.3942 14.641 92.2085 14.2176 92.2068 13.7728ZM95.4846 13.3274V12.8917L94.2394 12.973C93.5371 13.0211 93.2186 13.2652 93.2186 13.7247C93.2186 14.1938 93.6168 14.4668 94.1642 14.4668C94.4883 14.5003 94.8118 14.398 95.0607 14.1832C95.3096 13.9684 95.4626 13.6596 95.4846 13.3274ZM97.8091 12.6385C97.8091 10.9915 98.6375 9.9482 99.9258 9.9482C100.576 9.91756 101.186 10.2739 101.49 10.8626H101.565V8H102.571V15.2467H101.607V14.4233H101.527C101.2 15.0071 100.583 15.3574 99.9258 15.3326C98.6286 15.3327 97.8091 14.2894 97.8091 12.6385ZM98.8487 12.6385C98.8487 13.744 99.3585 14.4092 100.211 14.4092C101.059 14.4092 101.584 13.7344 101.584 12.643C101.584 11.5567 101.054 10.8723 100.211 10.8723C99.364 10.8723 98.8487 11.542 98.8487 12.6385ZM106.735 12.6385C106.647 11.7042 107.086 10.8001 107.866 10.3053C108.646 9.81041 109.633 9.81041 110.413 10.3053C111.193 10.8001 111.632 11.7042 111.544 12.6385C111.633 13.5737 111.195 14.4796 110.415 14.9755C109.634 15.4714 108.645 15.4714 107.864 14.9755C107.083 14.4796 106.646 13.5737 106.735 12.6385ZM110.509 12.6385C110.509 11.5087 110.012 10.848 109.141 10.848C108.266 10.848 107.774 11.5087 107.774 12.6385C107.774 13.7773 108.266 14.4329 109.141 14.4329C110.013 14.4329 110.509 13.7728 110.509 12.6385ZM112.894 10.0347H113.863V10.8626H113.938C114.2 10.253 114.811 9.88012 115.46 9.93405C115.963 9.89543 116.455 10.0925 116.799 10.4696C117.142 10.8467 117.299 11.363 117.225 11.8726V15.2467H116.219V12.1309C116.219 11.2933 115.863 10.8768 115.118 10.8768C114.777 10.8606 114.447 10.9973 114.213 11.2512C113.979 11.5051 113.865 11.8507 113.901 12.1976V15.2468H112.894V10.0347ZM122.911 8.73701V10.0584H124.016V10.9248H122.911V13.6049C122.911 14.1509 123.132 14.3899 123.633 14.3899C123.761 14.3895 123.889 14.3816 124.016 14.3662V15.223C123.836 15.2561 123.652 15.2736 123.469 15.2756C122.35 15.2756 121.904 14.8732 121.904 13.8683V10.9248H121.095V10.0584H121.904V8.73701H122.911ZM125.391 8H126.388V10.8723H126.468C126.742 10.2573 127.364 9.88392 128.023 9.93858C128.523 9.91078 129.008 10.1122 129.348 10.4879C129.688 10.8637 129.846 11.3747 129.779 11.8817V15.2468H128.772V12.1354C128.772 11.3029 128.392 10.8813 127.681 10.8813C127.331 10.8519 126.986 10.982 126.739 11.2368C126.491 11.4916 126.366 11.845 126.397 12.2027V15.2467H125.391L125.391 8ZM135.647 13.8395C135.365 14.8226 134.434 15.4578 133.437 15.3474C132.757 15.3657 132.104 15.0776 131.65 14.5596C131.197 14.0415 130.989 13.3458 131.082 12.6571C130.991 11.9665 131.198 11.2697 131.649 10.7472C132.1 10.2248 132.751 9.92812 133.433 9.93406C134.852 9.93406 135.708 10.9249 135.708 12.5616V12.9205H132.107V12.9781C132.075 13.3649 132.204 13.7475 132.463 14.0317C132.721 14.316 133.085 14.4756 133.465 14.4713C133.957 14.5317 134.436 14.2821 134.678 13.8394L135.647 13.8395ZM132.107 12.1597H134.682C134.708 11.806 134.586 11.4577 134.347 11.2005C134.108 10.9434 133.774 10.8014 133.427 10.8095C133.076 10.805 132.737 10.9458 132.488 11.2001C132.24 11.4543 132.102 11.8003 132.107 12.1597ZM45.0334 22.651C45.036 25.0793 46.4942 27.2707 48.7367 28.2167C48.3054 29.6139 47.6553 30.9344 46.8105 32.1292C45.6759 33.8218 44.4863 35.4755 42.5981 35.5061C40.7635 35.5483 40.1469 34.4293 38.0426 34.4293C35.9186 34.4293 35.2614 35.4755 33.5018 35.5483C31.7037 35.6147 30.3294 33.7417 29.1536 32.0649C26.8034 28.6406 24.9733 22.4147 27.4268 18.1785C28.5789 16.1138 30.733 14.8036 33.1011 14.7273C34.9009 14.6904 36.5722 15.9395 37.6788 15.9395C38.7643 15.9395 40.8295 14.4452 42.9598 14.6682C44.9846 14.7314 46.861 15.7431 48.0229 17.398C46.1894 18.5222 45.0611 20.5047 45.0334 22.651ZM41.5681 12.4162C40.5693 13.6551 39.0559 14.3687 37.462 14.3523C37.3606 12.7989 37.8826 11.2691 38.9129 10.0997C39.9563 8.91443 41.4091 8.16475 42.982 8C43.1048 9.59945 42.5976 11.1837 41.5681 12.4162Z" fill="#1E293B"/>
</svg>
