<svg xmlns="http://www.w3.org/2000/svg" width="100" height="40" viewBox="0 0 100 40" fill="none">
  <g clip-path="url(#clip0_1994_10028)">
    <path d="M13.4997 8C6.04425 8 0 14.0442 0 21.4997C0 25.7412 1.95784 29.5253 5.01677 32L5.94401 27.4312C4.07701 25.4577 3.17327 23.2602 2.85062 22.4363C2.58435 22.6901 2.4011 23.0284 2.35098 23.4121C2.2382 23.2022 2.18652 22.9579 2.21471 22.7042C2.29146 22.0181 2.93206 21.5216 3.64472 21.5968C3.9705 21.6313 4.25556 21.7785 4.46075 21.9946C4.39496 21.9806 4.32761 21.968 4.2587 21.9618C3.94857 21.9289 3.64942 21.9774 3.38158 22.0902C3.93604 23.1208 5.98003 26.3567 10.3672 27.5706C12.3908 28.1297 14.546 28.1297 16.5696 27.5706C20.9567 26.3567 23.0023 23.1208 23.5552 22.0902C23.2873 21.979 22.9882 21.9289 22.6781 21.9618C22.6091 21.9696 22.5418 21.9806 22.476 21.9946C22.6812 21.7785 22.9663 21.6313 23.292 21.5968C24.0047 21.5216 24.6453 22.0181 24.7221 22.7042C24.7502 22.9579 24.6986 23.2007 24.5858 23.4121C24.5357 23.0284 24.3524 22.6901 24.0861 22.4363C23.7666 23.2524 22.8754 25.4185 21.0429 27.3779L21.9811 32.0016C25.0416 29.5269 26.9978 25.7427 26.9978 21.5013C26.9978 14.0442 20.9552 8 13.4997 8ZM13.4997 13.0575C15.3573 13.0575 16.8688 14.9198 16.8688 17.2097H15.6314C15.6314 15.6027 14.6744 14.2949 13.4981 14.2949C12.3219 14.2949 11.3649 15.6027 11.3649 17.2097H10.1291C10.1291 14.9198 11.6405 13.0575 13.4997 13.0575ZM16.4051 26.6653C15.4513 26.9284 14.4645 27.0631 13.4684 27.0631C12.4722 27.0631 11.4855 26.93 10.5316 26.6653C8.81655 26.1907 7.48052 25.3919 6.46557 24.5461L7.81414 17.8941H19.1821L20.5213 24.5007C19.5017 25.3621 18.15 26.1813 16.4051 26.6653Z" fill="#fff"/>
  </g>
  <path d="M40.6396 29.5V10.5909H44.6374V26.2038H52.744V29.5H40.6396ZM60.9453 29.777C59.5111 29.777 58.2708 29.4723 57.2244 28.8629C56.1842 28.2474 55.3809 27.3918 54.8146 26.2962C54.2484 25.1944 53.9652 23.9171 53.9652 22.4645C53.9652 20.9995 54.2484 19.7192 54.8146 18.6236C55.3809 17.5218 56.1842 16.6662 57.2244 16.0568C58.2708 15.4413 59.5111 15.1335 60.9453 15.1335C62.3795 15.1335 63.6167 15.4413 64.657 16.0568C65.7034 16.6662 66.5097 17.5218 67.076 18.6236C67.6423 19.7192 67.9254 20.9995 67.9254 22.4645C67.9254 23.9171 67.6423 25.1944 67.076 26.2962C66.5097 27.3918 65.7034 28.2474 64.657 28.8629C63.6167 29.4723 62.3795 29.777 60.9453 29.777ZM60.9638 26.7301C61.6162 26.7301 62.161 26.5455 62.598 26.1761C63.035 25.8007 63.3644 25.2898 63.5859 24.6435C63.8137 23.9972 63.9276 23.2616 63.9276 22.4368C63.9276 21.612 63.8137 20.8764 63.5859 20.2301C63.3644 19.5838 63.035 19.0729 62.598 18.6974C62.161 18.322 61.6162 18.1342 60.9638 18.1342C60.3052 18.1342 59.7512 18.322 59.3019 18.6974C58.8587 19.0729 58.5232 19.5838 58.2955 20.2301C58.0739 20.8764 57.9631 21.612 57.9631 22.4368C57.9631 23.2616 58.0739 23.9972 58.2955 24.6435C58.5232 25.2898 58.8587 25.8007 59.3019 26.1761C59.7512 26.5455 60.3052 26.7301 60.9638 26.7301ZM76.0922 35.1136C74.818 35.1136 73.7255 34.9382 72.8145 34.5874C71.9096 34.2427 71.1895 33.7718 70.654 33.1747C70.1184 32.5777 69.7707 31.9067 69.6106 31.1619L73.2484 30.6726C73.3592 30.9557 73.5346 31.2204 73.7747 31.4666C74.0148 31.7128 74.3318 31.9098 74.7257 32.0575C75.1258 32.2114 75.6121 32.2884 76.1845 32.2884C77.0401 32.2884 77.7449 32.0791 78.2988 31.6605C78.859 31.2481 79.139 30.5556 79.139 29.5831V26.9886H78.9728C78.8005 27.3826 78.542 27.755 78.1973 28.1058C77.8526 28.4567 77.4094 28.7429 76.8677 28.9645C76.3261 29.1861 75.6798 29.2969 74.9288 29.2969C73.8639 29.2969 72.8945 29.0507 72.0204 28.5582C71.1525 28.0597 70.4601 27.2995 69.943 26.2777C69.4321 25.2498 69.1767 23.951 69.1767 22.3814C69.1767 20.7749 69.4383 19.433 69.9615 18.3558C70.4847 17.2786 71.1802 16.4723 72.0481 15.9368C72.9222 15.4013 73.8793 15.1335 74.9196 15.1335C75.7136 15.1335 76.3784 15.2689 76.9139 15.5398C77.4494 15.8045 77.8803 16.1368 78.2065 16.5369C78.5389 16.9309 78.7943 17.3187 78.9728 17.7003H79.1206V15.3182H83.0261V29.6385C83.0261 30.8449 82.7307 31.8544 82.1398 32.6669C81.5488 33.4794 80.7302 34.0888 79.6838 34.495C78.6435 34.9074 77.4463 35.1136 76.0922 35.1136ZM76.1753 26.3423C76.8093 26.3423 77.3448 26.1854 77.7818 25.8714C78.225 25.5514 78.5635 25.0959 78.7974 24.505C79.0375 23.9079 79.1575 23.1939 79.1575 22.3629C79.1575 21.532 79.0406 20.8118 78.8067 20.2024C78.5728 19.5869 78.2342 19.1098 77.791 18.7713C77.3478 18.4328 76.8093 18.2635 76.1753 18.2635C75.529 18.2635 74.9842 18.4389 74.541 18.7898C74.0978 19.1345 73.7624 19.6146 73.5346 20.2301C73.3069 20.8456 73.193 21.5566 73.193 22.3629C73.193 23.1816 73.3069 23.8894 73.5346 24.4865C73.7685 25.0774 74.104 25.536 74.541 25.8622C74.9842 26.1823 75.529 26.3423 76.1753 26.3423ZM91.7838 29.777C90.3496 29.777 89.1093 29.4723 88.0629 28.8629C87.0226 28.2474 86.2194 27.3918 85.6531 26.2962C85.0868 25.1944 84.8036 23.9171 84.8036 22.4645C84.8036 20.9995 85.0868 19.7192 85.6531 18.6236C86.2194 17.5218 87.0226 16.6662 88.0629 16.0568C89.1093 15.4413 90.3496 15.1335 91.7838 15.1335C93.2179 15.1335 94.4552 15.4413 95.4954 16.0568C96.5418 16.6662 97.3482 17.5218 97.9144 18.6236C98.4807 19.7192 98.7639 20.9995 98.7639 22.4645C98.7639 23.9171 98.4807 25.1944 97.9144 26.2962C97.3482 27.3918 96.5418 28.2474 95.4954 28.8629C94.4552 29.4723 93.2179 29.777 91.7838 29.777ZM91.8022 26.7301C92.4547 26.7301 92.9994 26.5455 93.4365 26.1761C93.8735 25.8007 94.2028 25.2898 94.4244 24.6435C94.6521 23.9972 94.766 23.2616 94.766 22.4368C94.766 21.612 94.6521 20.8764 94.4244 20.2301C94.2028 19.5838 93.8735 19.0729 93.4365 18.6974C92.9994 18.322 92.4547 18.1342 91.8022 18.1342C91.1436 18.1342 90.5896 18.322 90.1403 18.6974C89.6971 19.0729 89.3616 19.5838 89.1339 20.2301C88.9123 20.8764 88.8015 21.612 88.8015 22.4368C88.8015 23.2616 88.9123 23.9972 89.1339 24.6435C89.3616 25.2898 89.6971 25.8007 90.1403 26.1761C90.5896 26.5455 91.1436 26.7301 91.8022 26.7301Z" fill="#fff"/>
  <defs>
    <clipPath id="clip0_1994_10028">
      <rect width="26.9978" height="24" fill="white" transform="translate(0 8)"/>
    </clipPath>
  </defs>
</svg>
