<svg width="169" height="45" viewBox="0 0 169 45" fill="none" xmlns="http://www.w3.org/2000/svg">
<rect width="169" height="45" rx="5" fill="#94A3B8"/>
<path fill-rule="evenodd" clip-rule="evenodd" d="M59.3234 10.8667C59.3618 11.7131 59.0587 12.5387 58.4847 13.1506C57.8432 13.831 56.9486 14.2006 56.0243 14.167C54.6066 14.1556 53.3337 13.2776 52.7942 11.9389C52.2546 10.6002 52.5536 9.06159 53.5528 8.03459C54.202 7.35777 55.0967 6.98571 56.0243 7.00681C56.4971 7.00521 56.9652 7.10236 57.3999 7.29231C57.8045 7.45898 58.1648 7.72118 58.4511 8.05743L57.8584 8.66267C57.4058 8.11301 56.7265 7.81269 56.0243 7.85187C55.3185 7.84834 54.6417 8.13861 54.15 8.65575C53.6583 9.17289 53.3942 9.87227 53.4186 10.5926C53.4036 11.6811 54.0314 12.672 55.0099 13.1041C55.9884 13.5362 57.1254 13.3248 57.8919 12.5682C58.2361 12.1874 58.4345 11.6929 58.4511 11.175H56.0243V10.3528H59.2787C59.3085 10.5224 59.3235 10.6944 59.3234 10.8667ZM64.4454 8.01175H61.4259V10.1815H64.177V11.0037H61.4259V13.1735H64.4454V14.0185H60.5312V7.16669H64.4454V8.01175ZM68.1136 14.0185H67.2525V8.01175H65.3737V7.16669H70.0371V8.01175H68.1136V14.0185ZM73.3251 14.0185V7.16669H74.1862V14.0185H73.3251ZM78.0109 14.0185H77.1498V8.01175H75.271V7.16669H79.8786V8.01175H78.0109V14.0185ZM88.6128 13.1278C87.2518 14.5098 85.0532 14.5098 83.6921 13.1278C82.3728 11.7017 82.3728 9.47206 83.6921 8.04601C84.343 7.37652 85.2286 7 86.1525 7C87.0763 7 87.962 7.37652 88.6128 8.04601C89.9378 9.46977 89.9378 11.704 88.6128 13.1278ZM84.3296 12.5568C85.3376 13.5818 86.9674 13.5818 87.9754 12.5568C88.9653 11.4424 88.9653 9.74278 87.9754 8.62841C86.9674 7.60342 85.3376 7.60342 84.3296 8.62841C83.3396 9.74278 83.3396 11.4424 84.3296 12.5568ZM90.816 14.0185V7.16669H91.8672L95.1328 12.4997V7.16669H95.9939V14.0185H95.0992L91.6883 8.43428V14.0185H90.816ZM82.4955 24.0108C83.7654 23.9859 84.9908 24.4885 85.8911 25.4034C86.7913 26.3184 87.2892 27.5673 87.2708 28.8641C87.2708 31.5416 85.1474 33.7133 82.5253 33.7175C79.9032 33.7216 77.7731 31.5568 77.7649 28.8793C77.7567 26.2018 79.8735 24.0234 82.4955 24.0108ZM82.4955 31.8104C83.2373 31.7929 83.9407 31.4701 84.446 30.9153C84.9514 30.3606 85.2159 29.6209 85.1795 28.8641C85.1766 27.6544 84.4498 26.5694 83.3468 26.1281C82.2437 25.6868 80.9885 25.9788 80.1816 26.8646C79.3747 27.7504 79.18 29.0498 79.6907 30.1414C80.2014 31.233 81.3137 31.8948 82.4955 31.8104ZM72.0837 24.0108H72.0725C73.3425 23.9859 74.5679 24.4885 75.4681 25.4034C76.3683 26.3184 76.8663 27.5673 76.8479 28.8641C76.8479 31.5431 74.7221 33.7154 72.0986 33.7175C69.4751 33.7196 67.3461 31.5507 67.3419 28.8717C67.3378 26.1928 69.4602 24.0171 72.0837 24.0108ZM72.0837 31.8104H72.0725C72.8143 31.7929 73.5177 31.4701 74.0231 30.9153C74.5285 30.3606 74.793 29.6209 74.7566 28.8641C74.7533 27.6534 74.0251 26.568 72.9206 26.1276C71.8162 25.6873 70.5603 25.9817 69.7546 26.8699C68.9488 27.7581 68.7572 29.0592 69.2715 30.1501C69.7858 31.241 70.9013 31.8996 72.0837 31.8104ZM59.6813 25.5068L66.4696 25.4497C66.5476 25.8751 66.5851 26.3073 66.5815 26.7401C66.6341 28.5167 66.0085 30.2447 64.8368 31.5592C63.4979 32.9909 61.618 33.7612 59.6813 33.6718C56.9737 33.7794 54.4255 32.3658 53.0404 29.9878C51.6553 27.6098 51.6553 24.6485 53.0404 22.2705C54.4255 19.8924 56.9737 18.4788 59.6813 18.5864C61.5833 18.5696 63.4109 19.3399 64.7474 20.7219L63.3271 22.1722C62.3471 21.2061 61.032 20.6764 59.6701 20.6991C56.7054 20.6991 54.3021 23.1532 54.3021 26.1805C54.3021 29.2078 56.7054 31.662 59.6701 31.662C61.0642 31.7187 62.4168 31.1712 63.3942 30.1546C64.0427 29.444 64.4368 28.5305 64.5125 27.5623H59.6813V25.5068ZM110.353 27.1055L110.588 27.6194L104.225 30.303C104.624 31.2305 105.537 31.8148 106.529 31.7762C107.486 31.7786 108.374 31.2668 108.866 30.4286L110.488 31.5706C109.605 32.9198 108.118 33.7263 106.529 33.7175C105.266 33.7364 104.049 33.23 103.159 32.3147C102.269 31.3994 101.782 30.1538 101.809 28.8641C101.732 27.604 102.169 26.3674 103.016 25.448C103.864 24.5285 105.046 24.0083 106.283 24.0108C108.137 24.0805 109.756 25.3117 110.353 27.1055ZM103.867 28.7271L108.117 26.9228C107.782 26.2498 107.087 25.8454 106.35 25.895C105.65 25.9272 104.993 26.2456 104.526 26.7784C104.059 27.3112 103.821 28.0136 103.867 28.7271ZM98.7003 33.432V19.1574H100.792V33.432H98.7003ZM95.2782 25.0956V24.2963H97.2017V32.941C97.2017 36.5268 95.1775 37.9999 92.7283 37.9999C90.8822 38.0112 89.2141 36.8771 88.5122 35.1336L90.3351 34.357C90.7161 35.3746 91.6618 36.0559 92.7283 36.0814C94.294 36.0814 95.267 35.0879 95.267 33.2265V32.5299H95.1999C94.5714 33.2702 93.6541 33.6883 92.6948 33.6718C90.1563 33.5461 88.1614 31.4079 88.1614 28.8128C88.1614 26.2176 90.1563 24.0794 92.6948 23.9537C93.651 23.9524 94.5624 24.3678 95.1999 25.0956H95.2782ZM92.8849 31.8104H92.8737C93.6005 31.7819 94.2843 31.4509 94.7659 30.8943C95.2476 30.3378 95.4852 29.6042 95.4235 28.8641C95.4788 28.1275 95.2404 27.3993 94.7624 26.8446C94.2845 26.2899 93.6075 25.9557 92.8849 25.9179C91.3896 26.0524 90.2427 27.3313 90.2427 28.8641C90.2427 30.397 91.3896 31.6759 92.8849 31.8104ZM115.151 19.1574H120.161C121.786 19.0382 123.34 19.8557 124.187 21.2758C125.035 22.6959 125.035 24.4806 124.187 25.9007C123.34 27.3208 121.786 28.1383 120.161 28.0191H117.242V33.432H115.151V19.1574ZM120.15 26.0092L120.195 26.0435C121.52 26.0435 122.594 24.9468 122.594 23.5939C122.594 22.2411 121.52 21.1444 120.195 21.1444H117.231V26.0092H120.15ZM133.045 23.9537L133.101 23.9879C135.483 23.9879 137.339 25.4382 137.339 27.9391V33.432H135.326V32.2901H135.259C134.677 33.2136 133.648 33.7391 132.575 33.6604C131.704 33.7261 130.845 33.4295 130.192 32.838C129.539 32.2465 129.148 31.4104 129.108 30.52C129.108 28.453 131.132 27.3111 133.134 27.3111C133.894 27.3078 134.643 27.4961 135.315 27.8592V27.7108C135.262 27.1621 134.995 26.6584 134.574 26.3127C134.153 25.9669 133.614 25.8082 133.078 25.8722C132.297 25.8069 131.551 26.219 131.177 26.9228L129.321 26.1348C130.026 24.7155 131.489 23.8587 133.045 23.9537ZM132.787 31.7762L132.843 31.8104C134.103 31.7791 135.148 30.8048 135.293 29.5265C134.712 29.1958 134.056 29.0301 133.391 29.0469C132.34 29.0469 131.155 29.4237 131.155 30.5657C131.155 31.4222 132.105 31.7762 132.787 31.7762ZM144.675 24.2963H147.002L141.276 37.7601H139.095L141.22 32.9524L137.496 24.2963H139.732L142.215 30.4857H142.282L144.675 24.2963ZM125.876 33.432V19.1574H127.967V33.432H125.876ZM43.3884 21.556C43.6689 21.7182 43.8365 22.0085 43.8364 22.3325C43.8364 22.6564 43.6688 22.9467 43.3884 23.1085L38.2975 26.0469L34.7238 22.5923L38.634 18.8125L43.3884 21.556ZM37.827 18.3463L34.0795 21.9693L21.1287 9.45L32.595 15.3259L37.827 18.3463ZM21.3191 35.55L34.0795 23.2153L37.4905 26.513L32.6147 29.3278L21.3191 35.55ZM20.3637 9.95677L33.435 22.5921L20.3516 35.2395L20.3637 9.95677Z" fill="#1E293B"/>
</svg>
